<svg width="42" height="40" viewBox="0 0 42 40" fill="none" xmlns="http://www.w3.org/2000/svg">
<rect width="40" height="40" rx="20" fill="white"/>
<path d="M9.79998 15.35C10.36 15.35 10.81 14.9 10.81 14.34C10.81 13.78 10.36 13.33 9.79998 13.33C9.23998 13.33 8.78998 13.78 8.78998 14.34C8.78998 14.9 9.23998 15.35 9.79998 15.35Z" fill="#2A5DA1"/>
<path fill-rule="evenodd" clip-rule="evenodd" d="M11.83 17.55C11.83 16.47 10.92 15.69 9.8 15.69C8.68 15.69 7.77 16.47 7.77 17.55V18.06C7.77 18.15 7.81 18.24 7.87 18.3C7.93 18.36 8.02 18.4 8.11 18.4H11.49C11.58 18.4 11.67 18.36 11.73 18.3C11.79 18.24 11.83 18.15 11.83 18.06V17.55ZM7.75 20.5C7.75 20.3011 7.82902 20.1103 7.96967 19.9697C8.11032 19.829 8.30109 19.75 8.5 19.75H15.5C15.6989 19.75 15.8897 19.829 16.0303 19.9697C16.171 20.1103 16.25 20.3011 16.25 20.5C16.25 20.6989 16.171 20.8897 16.0303 21.0303C15.8897 21.171 15.6989 21.25 15.5 21.25H8.5C8.30109 21.25 8.11032 21.171 7.96967 21.0303C7.82902 20.8897 7.75 20.6989 7.75 20.5ZM7.75 23.5C7.75 23.3011 7.82902 23.1103 7.96967 22.9697C8.11032 22.829 8.30109 22.75 8.5 22.75H15.5C15.6989 22.75 15.8897 22.829 16.0303 22.9697C16.171 23.1103 16.25 23.3011 16.25 23.5C16.25 23.6989 16.171 23.8897 16.0303 24.0303C15.8897 24.171 15.6989 24.25 15.5 24.25H8.5C8.30109 24.25 8.11032 24.171 7.96967 24.0303C7.82902 23.8897 7.75 23.6989 7.75 23.5Z" fill="#2A5DA1"/>
<path fill-rule="evenodd" clip-rule="evenodd" d="M4.5 11.5C4.5 10.398 5.398 9.5 6.5 9.5H13.19C13.752 9.5 14.282 9.738 14.655 10.131L14.661 10.138L18.973 14.84C19.332 15.223 19.5 15.724 19.5 16.2V26.5C19.5 27.602 18.602 28.5 17.5 28.5H6.5C5.398 28.5 4.5 27.602 4.5 26.5V11.5ZM13.189 11.5H6.5V26.5H17.5V16.192L13.204 11.507L13.201 11.506L13.189 11.5Z" fill="#2A5DA1"/>
<path fill-rule="evenodd" clip-rule="evenodd" d="M13.19 9.5C13.4552 9.5 13.7096 9.60536 13.8971 9.79289C14.0846 9.98043 14.19 10.2348 14.19 10.5V15.2H18.5C18.6313 15.2 18.7614 15.2259 18.8827 15.2761C19.004 15.3264 19.1143 15.4 19.2071 15.4929C19.3 15.5858 19.3736 15.696 19.4239 15.8173C19.4741 15.9386 19.5 16.0687 19.5 16.2C19.5 16.3313 19.4741 16.4614 19.4239 16.5827C19.3736 16.704 19.3 16.8142 19.2071 16.9071C19.1143 17 19.004 17.0736 18.8827 17.1239C18.7614 17.1741 18.6313 17.2 18.5 17.2H13.19C12.9248 17.2 12.6704 17.0946 12.4829 16.9071C12.2954 16.7196 12.19 16.4652 12.19 16.2V10.5C12.19 10.2348 12.2954 9.98043 12.4829 9.79289C12.6704 9.60536 12.9248 9.5 13.19 9.5Z" fill="#2A5DA1"/>
<path d="M22 11.8V26.2C22 26.6774 22.1844 27.1352 22.5126 27.4728C22.8408 27.8104 23.2859 28 23.75 28H34.25C34.7141 28 35.1592 27.8104 35.4874 27.4728C35.8156 27.1352 36 26.6774 36 26.2V15.7078C36 15.468 35.9534 15.2306 35.8629 15.0096C35.7724 14.7886 35.64 14.5884 35.4733 14.4208L31.5883 10.513C31.2613 10.1842 30.8223 10.0001 30.365 10H23.75C23.2859 10 22.8408 10.1896 22.5126 10.5272C22.1844 10.8648 22 11.3226 22 11.8Z" stroke="#1F269E" stroke-width="2" stroke-linecap="round" stroke-linejoin="round"/>
<path d="M30.75 10V13.6C30.75 14.0774 30.9344 14.5352 31.2626 14.8728C31.5908 15.2104 32.0359 15.4 32.5 15.4H36" stroke="#1F269E" stroke-width="2" stroke-linejoin="round"/>
<path d="M31 16.5C31 18.2239 30.3152 19.8772 29.0962 21.0962C27.8772 22.3152 26.2239 23 24.5 23C22.89 23 21.41 22.41 20.27 21.44L20 21.71V22.5L15 27.5L13.5 26L18.5 21H19.29L19.56 20.73C18.5535 19.5504 18.0004 18.0506 18 16.5C18 14.7761 18.6848 13.1228 19.9038 11.9038C21.1228 10.6848 22.7761 10 24.5 10C26.2239 10 27.8772 10.6848 29.0962 11.9038C30.3152 13.1228 31 14.7761 31 16.5ZM29 16.5C29 14 27 12 24.5 12C22 12 20 14 20 16.5C20 19 22 21 24.5 21C27 21 29 19 29 16.5Z" fill="black"/>
</svg>
